HIERARCHY
ROOT Hips
{
	OFFSET 0.000000 0.000000 0.000000
	CHANNELS 6 Xposition Yposition Zposition Zrotation Yrotation Xrotation 
	JOINT LeftUpLeg_virtual
	{
		OFFSET 0.000000 0.000000 0.000000
		CHANNELS 3 Zrotation Yrotation Xrotation
		JOINT LeftUpLeg
		{
			OFFSET 8.479694 -4.795517 -0.379053
			CHANNELS 3 Zrotation Yrotation Xrotation
			JOINT LeftLeg
			{
				OFFSET 0.485052 -32.551468 0.112863
				CHANNELS 3 Zrotation Yrotation Xrotation
				JOINT LeftFoot
				{
					OFFSET 0.438033 -32.635670 -3.012641
					CHANNELS 3 Zrotation Yrotation Xrotation
					JOINT LeftToeBase
					{
						OFFSET 0.970169 -13.225353 11.864223
						CHANNELS 3 Zrotation Yrotation Xrotation
						End Site
						{
							OFFSET 0.000000 0.000000 0.000000
						}
					}
				}
			}
		}
	}
	JOINT RightUpLeg_virtual
	{
		OFFSET 0.000000 0.000000 0.000000
		CHANNELS 3 Zrotation Yrotation Xrotation
		JOINT RightUpLeg
		{
			OFFSET -8.479694 -4.795517 -0.379053
			CHANNELS 3 Zrotation Yrotation Xrotation
			JOINT RightLeg
			{
				OFFSET -0.484100 -32.551483 0.112903
				CHANNELS 3 Zrotation Yrotation Xrotation
				JOINT RightFoot
				{
					OFFSET -0.438985 -32.635651 -3.012681
					CHANNELS 3 Zrotation Yrotation Xrotation
					JOINT RightToeBase
					{
						OFFSET -0.970169 -13.225354 11.864223
						CHANNELS 3 Zrotation Yrotation Xrotation
						End Site
						{
							OFFSET 0.000000 0.000000 0.000000
						}
					}
				}
			}
		}
	}
	JOINT Spine_virtual
	{
		OFFSET 0.000000 0.000000 0.000000
		CHANNELS 3 Zrotation Yrotation Xrotation
		JOINT Spine
		{
			OFFSET 0.000000 7.722015 1.166203
			CHANNELS 3 Zrotation Yrotation Xrotation
			JOINT Spine1
			{
				OFFSET 0.000000 12.024086 0.248766
				CHANNELS 3 Zrotation Yrotation Xrotation
				JOINT Spine2
				{
					OFFSET -0.000000 11.503036 -0.491240
					CHANNELS 3 Zrotation Yrotation Xrotation
					JOINT Neck_virtual
					{
						OFFSET 0.000000 0.000000 0.000000
						CHANNELS 3 Zrotation Yrotation Xrotation
						JOINT Neck
						{
							OFFSET 0.000000 18.430687 -3.123054
							CHANNELS 3 Zrotation Yrotation Xrotation
							JOINT Head
							{
								OFFSET -0.000000 9.051071 1.034021
								CHANNELS 3 Zrotation Yrotation Xrotation
								End Site
								{
									OFFSET 0.000000 0.000000 0.000000
								}
							}
						}
					}
					JOINT LeftShoulder_virtual
					{
						OFFSET 0.000000 0.000000 0.000000
						CHANNELS 3 Zrotation Yrotation Xrotation
						JOINT LeftShoulder
						{
							OFFSET 6.197824 13.665230 -4.064723
							CHANNELS 3 Zrotation Yrotation Xrotation
							JOINT LeftArm
							{
								OFFSET 7.778132 -0.187073 -1.709282
								CHANNELS 3 Zrotation Yrotation Xrotation
								JOINT LeftForeArm
								{
									OFFSET 21.954697 0.000000 -2.041093
									CHANNELS 3 Zrotation Yrotation Xrotation
									JOINT LeftHand
									{
										OFFSET 22.992908 0.000000 -0.870901
										CHANNELS 3 Zrotation Yrotation Xrotation
										End Site
										{
											OFFSET 0.000000 0.000000 0.000000
										}
									}
								}
							}
						}
					}
					JOINT RightShoulder_virtual
					{
						OFFSET 0.000000 0.000000 0.000000
						CHANNELS 3 Zrotation Yrotation Xrotation
						JOINT RightShoulder
						{
							OFFSET -6.197824 13.665230 -4.064723
							CHANNELS 3 Zrotation Yrotation Xrotation
							JOINT RightArm
							{
								OFFSET -7.778132 -0.187073 -1.709282
								CHANNELS 3 Zrotation Yrotation Xrotation
								JOINT RightForeArm
								{
									OFFSET -21.954697 0.000000 -2.041093
									CHANNELS 3 Zrotation Yrotation Xrotation
									JOINT RightHand
									{
										OFFSET -22.992908 0.000000 -0.870901
										CHANNELS 3 Zrotation Yrotation Xrotation
										End Site
										{
											OFFSET 0.000000 0.000000 0.000000
										}
									}
								}
							}
						}
					}
				}
			}
		}
	}
}
MOTION
Frames: 4
Frame Time: 0.033333
15.187858 81.714493 -13.120011 -179.980484 3.289643 -179.951757 -4.355445 0.626205 11.197351 2.386369 -4.556433 -24.287111 5.838205 6.256500 27.279653 -6.336404 -6.710552 -8.618947 0.000000 0.000000 0.000000 -0.507977 0.137594 11.500760 1.111179 -3.835452 -15.919805 -1.057929 2.359664 26.126442 9.818569 10.859838 -10.504931 0.000000 0.000000 0.000000 2.584489 2.711600 -0.061748 -5.209543 0.019287 -2.095291 1.541008 -3.511083 4.843636 0.027418 -0.041000 0.011474 1.412013 -2.450467 5.135044 -1.615354 2.735817 -10.488828 0.000000 0.000000 0.000000 2.608393 -1.529206 2.338721 6.626560 0.563066 -4.806309 -21.535779 8.991556 -36.019385 -6.314840 -22.871959 -3.417049 0.000000 0.000000 0.000000 -0.942379 -0.392689 1.842371 11.848715 -3.466031 -4.751553 19.791214 -12.899303 -45.999237 1.369733 27.172897 -3.469629 0.000000 0.000000 0.000000 
15.196484 81.737495 -13.119090 179.937591 3.291064 -179.854823 -4.392787 0.607109 11.210568 2.433310 -4.661114 -24.377743 5.863284 6.246910 27.156407 -6.217805 -6.668253 -8.625274 0.000000 0.000000 0.000000 -0.422901 0.186067 11.611149 1.254348 -4.315966 -15.954226 -0.855418 2.103730 26.311313 10.120845 11.204528 -10.440157 0.000000 0.000000 0.000000 2.516531 2.734550 -0.077373 -5.212427 0.024392 -2.127427 1.536273 -3.490297 4.808323 -0.016400 -0.034998 0.011513 1.474383 -2.384422 5.215234 -1.578342 2.617774 -10.436936 0.000000 0.000000 0.000000 2.670655 -1.516986 2.492124 6.604090 0.427890 -4.622732 -21.605606 9.038819 -36.271682 -6.152003 -22.820072 -3.483433 0.000000 0.000000 0.000000 -0.878047 -0.390508 1.863881 11.985888 -3.471835 -4.722811 19.672675 -13.025997 -46.062990 1.355501 27.110921 -3.489428 0.000000 0.000000 0.000000 
15.200596 81.756927 -13.099160 179.982274 3.470328 -179.844236 -4.334169 0.674759 11.295039 2.437726 -4.594294 -24.395971 5.869223 6.249966 26.964197 -6.111531 -6.694762 -8.557926 0.000000 0.000000 0.000000 -0.351742 0.234673 11.712116 1.220910 -4.274585 -16.061058 -0.831593 2.239024 26.214131 10.077908 11.164289 -10.401074 0.000000 0.000000 0.000000 2.499981 2.764377 0.006402 -5.190965 0.051353 -2.142569 1.571956 -3.437447 4.808697 0.053038 -0.007660 0.072821 1.382937 -2.456531 5.132535 -1.510449 2.480857 -10.397224 0.000000 0.000000 0.000000 2.588521 -1.548753 2.335760 6.613751 0.192497 -4.624059 -21.776246 9.262291 -36.095289 -6.007168 -22.834255 -3.351819 0.000000 0.000000 0.000000 -0.978582 -0.397541 1.788403 12.086453 -3.517245 -4.718239 19.676675 -13.040543 -45.972805 1.349497 27.078377 -3.464056 0.000000 0.000000 0.000000 
15.233491 81.774155 -13.065479 179.978312 3.581700 -179.889834 -4.314939 0.633447 11.352393 2.416615 -4.659406 -24.323390 5.881198 6.361974 26.795343 -5.965022 -6.717706 -8.500036 0.000000 0.000000 0.000000 -0.305243 0.200595 11.798712 1.178294 -4.205786 -16.117312 -0.804323 2.356276 26.167401 10.021621 11.102322 -10.408840 0.000000 0.000000 0.000000 2.541801 2.719770 0.055739 -5.164695 0.030220 -2.058110 1.597928 -3.436195 4.833849 -0.037112 -0.034761 0.003229 1.445249 -2.321964 5.199560 -1.468452 2.371628 -10.283284 0.000000 0.000000 0.000000 2.605951 -1.430301 2.368560 6.555132 0.049303 -4.544539 -22.143017 9.174701 -35.910119 -5.783730 -22.729468 -3.169326 0.000000 0.000000 0.000000 -0.944471 -0.303890 1.864289 12.320475 -3.590103 -4.681910 19.530731 -13.054145 -45.703658 1.286083 27.047829 -3.514066 0.000000 0.000000 0.000000 
